<?xml version="1.0" encoding="UTF-8"?>
<svg xmlns="http://www.w3.org/2000/svg" xmlns:xlink="http://www.w3.org/1999/xlink" width="46pt" height="46pt" viewBox="0 0 46 46" version="1.1">
<g id="surface1">
<path style=" stroke:none;fill-rule:nonzero;fill:rgb(76.078431%,4.705882%,4.705882%);fill-opacity:1;" d="M 45.921875 28.050781 L 45.929688 28.046875 L 38.378906 11.570312 L 40.210938 10.65625 L 39.523438 9.285156 L 37.738281 10.175781 L 37.496094 9.648438 C 37.320312 9.261719 36.867188 9.09375 36.480469 9.269531 C 36.3125 9.347656 36.179688 9.480469 36.101562 9.648438 L 35.886719 10.117188 C 34.589844 9.515625 33.171875 9.203125 31.738281 9.199219 L 25.300781 9.199219 L 25.300781 7.667969 L 26.832031 7.667969 L 26.832031 6.132812 L 25.515625 6.132812 L 26.066406 3.929688 C 26.488281 2.234375 25.460938 0.519531 23.765625 0.09375 C 22.074219 -0.328125 20.355469 0.703125 19.933594 2.394531 C 19.808594 2.898438 19.808594 3.425781 19.933594 3.929688 L 20.484375 6.132812 L 19.167969 6.132812 L 19.167969 7.667969 L 20.699219 7.667969 L 20.699219 9.199219 L 14.265625 9.199219 C 12.828125 9.203125 11.414062 9.515625 10.113281 10.121094 L 9.898438 9.648438 C 9.71875 9.265625 9.265625 9.09375 8.878906 9.273438 C 8.714844 9.347656 8.578125 9.484375 8.503906 9.648438 L 8.261719 10.175781 L 6.476562 9.28125 L 5.789062 10.65625 L 7.621094 11.570312 L 0.0703125 28.046875 C 0.0234375 28.148438 0 28.257812 0 28.367188 C 0.00390625 31.328125 2.40625 33.730469 5.367188 33.734375 L 13.035156 33.734375 C 15.996094 33.730469 18.398438 31.328125 18.398438 28.367188 C 18.398438 28.257812 18.371094 28.148438 18.324219 28.050781 L 10.75 11.507812 C 11.851562 10.996094 13.050781 10.734375 14.265625 10.734375 L 20.699219 10.734375 L 20.699219 38.78125 L 18.082031 41.398438 L 15.332031 41.398438 C 13.21875 41.402344 11.503906 43.117188 11.5 45.234375 C 11.5 45.65625 11.84375 46 12.265625 46 L 33.734375 46 C 34.15625 46 34.5 45.65625 34.5 45.234375 C 34.496094 43.117188 32.78125 41.402344 30.667969 41.398438 L 27.917969 41.398438 L 25.300781 38.78125 L 25.300781 10.734375 L 31.738281 10.734375 C 32.953125 10.734375 34.152344 10.996094 35.253906 11.507812 L 27.667969 28.046875 C 27.625 28.148438 27.597656 28.257812 27.601562 28.367188 C 27.601562 31.328125 30.003906 33.730469 32.964844 33.734375 L 40.632812 33.734375 C 43.59375 33.730469 45.996094 31.328125 46 28.367188 C 45.996094 28.257812 45.972656 28.148438 45.921875 28.050781 Z M 13.035156 32.199219 L 5.367188 32.199219 C 3.546875 32.199219 1.976562 30.917969 1.609375 29.132812 L 16.789062 29.132812 C 16.421875 30.917969 14.855469 32.199219 13.035156 32.199219 Z M 16.4375 27.601562 L 1.960938 27.601562 L 9.003906 12.234375 C 9.132812 12.269531 9.269531 12.269531 9.394531 12.234375 Z M 21.71875 2.160156 C 22.3125 1.449219 23.371094 1.359375 24.082031 1.957031 C 24.152344 2.019531 24.222656 2.085938 24.28125 2.160156 C 24.59375 2.554688 24.703125 3.070312 24.578125 3.554688 L 23.933594 6.132812 L 22.066406 6.132812 L 21.421875 3.554688 C 21.296875 3.070312 21.40625 2.554688 21.71875 2.160156 Z M 22.234375 9.199219 L 22.234375 7.667969 L 23.765625 7.667969 L 23.765625 9.199219 Z M 23.765625 10.734375 L 23.765625 38.332031 L 22.234375 38.332031 L 22.234375 10.734375 Z M 30.667969 42.933594 C 31.640625 42.933594 32.507812 43.546875 32.835938 44.464844 L 13.164062 44.464844 C 13.492188 43.546875 14.359375 42.933594 15.332031 42.933594 Z M 25.75 41.398438 L 20.25 41.398438 L 21.785156 39.867188 L 24.214844 39.867188 Z M 36.601562 12.238281 C 36.730469 12.28125 36.867188 12.277344 36.988281 12.222656 L 44.039062 27.601562 L 29.5625 27.601562 Z M 40.632812 32.199219 L 32.964844 32.199219 C 31.144531 32.199219 29.578125 30.917969 29.210938 29.132812 L 44.390625 29.132812 C 44.023438 30.917969 42.453125 32.199219 40.632812 32.199219 Z M 40.632812 32.199219 "/>
</g>
</svg>
