<?xml version="1.0" encoding="UTF-8"?>
<svg xmlns="http://www.w3.org/2000/svg" xmlns:xlink="http://www.w3.org/1999/xlink" width="46pt" height="46pt" viewBox="0 0 46 46" version="1.1">
<g id="surface1">
<path style=" stroke:none;fill-rule:nonzero;fill:rgb(76.078431%,4.705882%,4.705882%);fill-opacity:1;" d="M 39.320312 39.320312 C 39.457031 39.183594 39.523438 39 39.523438 38.8125 L 39.53125 38.8125 L 39.53125 1.4375 C 39.53125 1.039062 39.210938 0.71875 38.8125 0.71875 L 7.1875 0.71875 C 6.789062 0.71875 6.46875 1.039062 6.46875 1.4375 L 6.46875 41.6875 C 6.46875 43.667969 8.082031 45.28125 10.0625 45.28125 L 38.8125 45.28125 C 39.101562 45.28125 39.367188 45.105469 39.476562 44.835938 C 39.589844 44.570312 39.527344 44.261719 39.320312 44.054688 L 37.671875 42.40625 C 37.480469 42.214844 37.375 41.960938 37.375 41.6875 C 37.375 41.414062 37.480469 41.160156 37.671875 40.96875 Z M 12.21875 2.15625 L 12.21875 38.09375 L 10.0625 38.09375 C 9.25 38.09375 8.507812 38.375 7.90625 38.832031 L 7.90625 2.15625 Z M 36.054688 40.96875 L 11.5 40.96875 L 11.5 42.40625 L 36.054688 42.40625 C 36.171875 42.785156 36.367188 43.136719 36.65625 43.421875 L 37.078125 43.84375 L 10.0625 43.84375 C 8.875 43.84375 7.90625 42.875 7.90625 41.6875 C 7.90625 40.5 8.875 39.53125 10.0625 39.53125 L 37.078125 39.53125 L 36.65625 39.953125 C 36.367188 40.238281 36.171875 40.589844 36.054688 40.96875 Z M 13.65625 38.09375 L 13.65625 2.15625 L 38.09375 2.15625 L 38.09375 38.09375 Z M 13.65625 38.09375 "/>
<path style=" stroke:none;fill-rule:nonzero;fill:rgb(76.078431%,4.705882%,4.705882%);fill-opacity:1;" d="M 17.96875 10.78125 L 19.679688 10.78125 L 18.046875 14.054688 L 18.050781 14.058594 C 18.003906 14.152344 17.96875 14.257812 17.96875 14.375 L 17.96875 15.09375 C 17.96875 16.679688 19.257812 17.96875 20.84375 17.96875 C 22.429688 17.96875 23.71875 16.679688 23.71875 15.09375 L 23.71875 14.375 C 23.71875 14.257812 23.683594 14.152344 23.636719 14.054688 L 23.640625 14.054688 L 22.007812 10.78125 L 25.15625 10.78125 L 25.15625 19.40625 L 23.71875 19.40625 C 22.132812 19.40625 20.84375 20.695312 20.84375 22.28125 L 20.84375 23 C 20.84375 23.398438 21.164062 23.71875 21.5625 23.71875 L 30.1875 23.71875 C 30.585938 23.71875 30.90625 23.398438 30.90625 23 L 30.90625 22.28125 C 30.90625 20.695312 29.617188 19.40625 28.03125 19.40625 L 26.59375 19.40625 L 26.59375 10.78125 L 29.742188 10.78125 L 28.109375 14.054688 L 28.113281 14.058594 C 28.066406 14.152344 28.03125 14.257812 28.03125 14.375 L 28.03125 15.09375 C 28.03125 16.679688 29.320312 17.96875 30.90625 17.96875 C 32.492188 17.96875 33.78125 16.679688 33.78125 15.09375 L 33.78125 14.375 C 33.78125 14.257812 33.746094 14.152344 33.699219 14.054688 L 33.703125 14.054688 L 32.070312 10.78125 L 33.78125 10.78125 C 33.972656 10.78125 34.15625 10.707031 34.289062 10.570312 L 35.726562 9.132812 L 34.710938 8.117188 L 33.484375 9.34375 L 26.59375 9.34375 L 26.59375 7.773438 C 27.429688 7.476562 28.03125 6.6875 28.03125 5.75 C 28.03125 4.5625 27.0625 3.59375 25.875 3.59375 C 24.6875 3.59375 23.71875 4.5625 23.71875 5.75 C 23.71875 6.6875 24.320312 7.476562 25.15625 7.773438 L 25.15625 9.34375 L 18.265625 9.34375 L 17.039062 8.117188 L 16.023438 9.132812 L 17.460938 10.570312 C 17.59375 10.707031 17.777344 10.78125 17.96875 10.78125 Z M 20.84375 11.667969 L 21.835938 13.65625 L 19.851562 13.65625 Z M 20.84375 16.53125 C 20.050781 16.53125 19.40625 15.886719 19.40625 15.09375 L 22.28125 15.09375 C 22.28125 15.886719 21.636719 16.53125 20.84375 16.53125 Z M 29.46875 22.28125 L 22.28125 22.28125 C 22.28125 21.488281 22.925781 20.84375 23.71875 20.84375 L 28.03125 20.84375 C 28.824219 20.84375 29.46875 21.488281 29.46875 22.28125 Z M 30.90625 11.667969 L 31.898438 13.65625 L 29.914062 13.65625 Z M 30.90625 16.53125 C 30.113281 16.53125 29.46875 15.886719 29.46875 15.09375 L 32.34375 15.09375 C 32.34375 15.886719 31.699219 16.53125 30.90625 16.53125 Z M 25.875 5.03125 C 26.273438 5.03125 26.59375 5.355469 26.59375 5.75 C 26.59375 6.144531 26.273438 6.46875 25.875 6.46875 C 25.476562 6.46875 25.15625 6.144531 25.15625 5.75 C 25.15625 5.355469 25.476562 5.03125 25.875 5.03125 Z M 25.875 5.03125 "/>
<path style=" stroke:none;fill-rule:nonzero;fill:rgb(76.078431%,4.705882%,4.705882%);fill-opacity:1;" d="M 35.9375 26.59375 L 15.8125 26.59375 C 15.414062 26.59375 15.09375 26.914062 15.09375 27.3125 L 15.09375 35.9375 C 15.09375 36.335938 15.414062 36.65625 15.8125 36.65625 L 35.9375 36.65625 C 36.335938 36.65625 36.65625 36.335938 36.65625 35.9375 L 36.65625 27.3125 C 36.65625 26.914062 36.335938 26.59375 35.9375 26.59375 Z M 35.21875 35.21875 L 16.53125 35.21875 L 16.53125 28.03125 L 35.21875 28.03125 Z M 35.21875 35.21875 "/>
<path style=" stroke:none;fill-rule:nonzero;fill:rgb(76.078431%,4.705882%,4.705882%);fill-opacity:1;" d="M 17.96875 29.46875 L 33.78125 29.46875 L 33.78125 30.90625 L 17.96875 30.90625 Z M 17.96875 29.46875 "/>
<path style=" stroke:none;fill-rule:nonzero;fill:rgb(76.078431%,4.705882%,4.705882%);fill-opacity:1;" d="M 17.96875 32.34375 L 33.78125 32.34375 L 33.78125 33.78125 L 17.96875 33.78125 Z M 17.96875 32.34375 "/>
</g>
</svg>
