<?xml version="1.0" encoding="UTF-8"?>
<svg xmlns="http://www.w3.org/2000/svg" xmlns:xlink="http://www.w3.org/1999/xlink" width="40pt" height="38pt" viewBox="0 0 40 38" version="1.1">
<g id="surface1">
<path style=" stroke:none;fill-rule:nonzero;fill:rgb(76.078431%,4.705882%,4.705882%);fill-opacity:1;" d="M 38.949219 29.316406 L 30.855469 24.1875 C 29.828125 23.539062 28.449219 23.753906 27.691406 24.675781 L 25.332031 27.554688 C 25.027344 27.933594 24.476562 28.042969 24.039062 27.8125 L 23.589844 27.578125 C 22.105469 26.808594 20.253906 25.847656 16.523438 22.304688 C 12.796875 18.761719 11.785156 17.003906 10.976562 15.59375 L 10.730469 15.167969 C 10.480469 14.75 10.597656 14.226562 10.996094 13.933594 L 14.027344 11.695312 C 14.996094 10.972656 15.21875 9.667969 14.539062 8.691406 L 9.140625 1 C 8.445312 0.00390625 7.050781 -0.292969 5.972656 0.320312 L 2.585938 2.253906 C 1.523438 2.847656 0.742188 3.808594 0.410156 4.9375 C -0.808594 9.15625 0.109375 16.441406 11.402344 27.171875 C 20.382812 35.703125 27.070312 38 31.667969 38 C 32.726562 38.003906 33.78125 37.871094 34.800781 37.609375 C 35.988281 37.292969 37.003906 36.550781 37.628906 35.539062 L 39.664062 32.328125 C 40.3125 31.304688 39.996094 29.976562 38.949219 29.316406 Z M 38.515625 31.675781 L 36.484375 34.894531 C 36.035156 35.621094 35.304688 36.160156 34.449219 36.390625 C 30.351562 37.460938 23.183594 36.574219 12.34375 26.273438 C 1.5 15.972656 0.570312 9.167969 1.695312 5.273438 C 1.9375 4.457031 2.503906 3.765625 3.273438 3.339844 L 6.660156 1.410156 C 7.125 1.140625 7.730469 1.273438 8.035156 1.703125 L 10.964844 5.886719 L 13.429688 9.394531 C 13.722656 9.816406 13.625 10.386719 13.207031 10.699219 L 10.175781 12.9375 C 9.253906 13.609375 8.988281 14.820312 9.558594 15.78125 L 9.796875 16.199219 C 10.648438 17.683594 11.707031 19.527344 15.574219 23.203125 C 19.441406 26.875 21.386719 27.878906 22.945312 28.691406 L 23.386719 28.917969 C 24.398438 29.457031 25.671875 29.207031 26.378906 28.332031 L 28.738281 25.453125 C 29.066406 25.054688 29.664062 24.960938 30.109375 25.242188 L 38.207031 30.371094 C 38.660156 30.65625 38.796875 31.234375 38.515625 31.675781 Z M 38.515625 31.675781 "/>
<path style=" stroke:none;fill-rule:nonzero;fill:rgb(76.078431%,4.705882%,4.705882%);fill-opacity:1;" d="M 22.664062 6.335938 C 28.921875 6.34375 33.988281 11.160156 33.996094 17.101562 C 33.996094 17.453125 34.296875 17.734375 34.664062 17.734375 C 35.03125 17.734375 35.332031 17.453125 35.332031 17.101562 C 35.324219 10.460938 29.65625 5.078125 22.664062 5.070312 C 22.296875 5.070312 22 5.355469 22 5.703125 C 22 6.054688 22.296875 6.335938 22.664062 6.335938 Z M 22.664062 6.335938 "/>
<path style=" stroke:none;fill-rule:nonzero;fill:rgb(76.078431%,4.705882%,4.705882%);fill-opacity:1;" d="M 22.664062 10.136719 C 26.714844 10.140625 29.992188 13.257812 29.996094 17.101562 C 29.996094 17.453125 30.296875 17.734375 30.664062 17.734375 C 31.03125 17.734375 31.332031 17.453125 31.332031 17.101562 C 31.324219 12.558594 27.449219 8.875 22.664062 8.871094 C 22.296875 8.871094 22 9.152344 22 9.503906 C 22 9.851562 22.296875 10.136719 22.664062 10.136719 Z M 22.664062 10.136719 "/>
<path style=" stroke:none;fill-rule:nonzero;fill:rgb(76.078431%,4.705882%,4.705882%);fill-opacity:1;" d="M 22.664062 13.933594 C 24.503906 13.9375 25.996094 15.355469 26 17.101562 C 26 17.453125 26.296875 17.734375 26.664062 17.734375 C 27.03125 17.734375 27.332031 17.453125 27.332031 17.101562 C 27.328125 14.65625 25.242188 12.671875 22.664062 12.667969 C 22.296875 12.667969 22 12.953125 22 13.300781 C 22 13.652344 22.296875 13.933594 22.664062 13.933594 Z M 22.664062 13.933594 "/>
</g>
</svg>
