<?xml version="1.0" encoding="UTF-8"?>
<svg xmlns="http://www.w3.org/2000/svg" xmlns:xlink="http://www.w3.org/1999/xlink" width="46pt" height="46pt" viewBox="0 0 46 46" version="1.1">
<g id="surface1">
<path style=" stroke:none;fill-rule:nonzero;fill:rgb(76.078431%,4.705882%,4.705882%);fill-opacity:1;" d="M 23 11.972656 L 28.460938 7.417969 L 35.613281 7.417969 L 35.613281 0 L 17.804688 0 L 17.804688 7.417969 L 23 7.417969 Z M 19.289062 5.933594 L 19.289062 1.484375 L 34.128906 1.484375 L 34.128906 5.933594 L 27.925781 5.933594 L 24.484375 8.804688 L 24.484375 5.933594 Z M 19.289062 5.933594 "/>
<path style=" stroke:none;fill-rule:nonzero;fill:rgb(76.078431%,4.705882%,4.705882%);fill-opacity:1;" d="M 20.773438 2.96875 L 22.257812 2.96875 L 22.257812 4.453125 L 20.773438 4.453125 Z M 20.773438 2.96875 "/>
<path style=" stroke:none;fill-rule:nonzero;fill:rgb(76.078431%,4.705882%,4.705882%);fill-opacity:1;" d="M 23.742188 2.96875 L 29.675781 2.96875 L 29.675781 4.453125 L 23.742188 4.453125 Z M 23.742188 2.96875 "/>
<path style=" stroke:none;fill-rule:nonzero;fill:rgb(76.078431%,4.705882%,4.705882%);fill-opacity:1;" d="M 31.160156 2.96875 L 32.644531 2.96875 L 32.644531 4.453125 L 31.160156 4.453125 Z M 31.160156 2.96875 "/>
<path style=" stroke:none;fill-rule:nonzero;fill:rgb(76.078431%,4.705882%,4.705882%);fill-opacity:1;" d="M 37.769531 44.515625 L 37.167969 38.511719 C 39.644531 38.117188 41.546875 35.972656 41.546875 33.386719 L 41.546875 23.742188 L 38.582031 23.742188 L 38.582031 22.714844 C 38.582031 21.707031 38.027344 20.800781 37.136719 20.339844 C 38.019531 19.523438 38.582031 18.359375 38.582031 17.066406 L 38.582031 15.582031 C 38.582031 13.125 36.585938 11.128906 34.128906 11.128906 C 31.675781 11.128906 29.675781 13.125 29.675781 15.582031 L 29.675781 17.066406 C 29.675781 18.984375 30.902344 20.621094 32.609375 21.242188 L 28.628906 25.226562 L 24.46875 25.226562 C 24.382812 23.988281 23.535156 22.910156 22.332031 22.566406 L 19.289062 21.699219 L 19.289062 20.375 C 20.199219 19.558594 20.773438 18.378906 20.773438 17.066406 L 20.773438 15.582031 C 20.773438 13.125 18.777344 11.128906 16.324219 11.128906 C 13.867188 11.128906 11.871094 13.125 11.871094 15.582031 L 11.871094 17.066406 C 11.871094 18.378906 12.445312 19.558594 13.355469 20.375 L 13.355469 21.699219 L 10.3125 22.566406 C 9.046875 22.929688 8.160156 24.101562 8.160156 25.421875 L 8.160156 28.195312 L 5.195312 28.195312 L 5.195312 32.644531 L 6.675781 32.644531 L 6.675781 44.515625 L 0 44.515625 L 0 46 L 46 46 L 46 44.515625 Z M 31.160156 32.644531 L 31.160156 29.242188 L 36.417969 23.984375 C 36.796875 23.605469 37.023438 23.09375 37.074219 22.5625 C 37.082031 22.613281 37.097656 22.664062 37.097656 22.714844 L 37.097656 31.902344 C 37.097656 33.128906 36.097656 34.128906 34.871094 34.128906 L 28.933594 34.128906 L 28.933594 32.644531 Z M 28.933594 38.582031 L 32.714844 38.582031 L 33.308594 44.515625 L 28.933594 44.515625 Z M 34.207031 38.582031 L 35.683594 38.582031 L 36.277344 44.515625 L 34.800781 44.515625 Z M 38.582031 31.902344 L 38.582031 25.226562 L 40.066406 25.226562 L 40.066406 33.386719 C 40.066406 35.433594 38.398438 37.097656 36.355469 37.097656 L 28.933594 37.097656 L 28.933594 35.613281 L 34.871094 35.613281 C 36.917969 35.613281 38.582031 33.949219 38.582031 31.902344 Z M 31.160156 17.066406 L 31.160156 15.582031 C 31.160156 13.945312 32.492188 12.613281 34.128906 12.613281 C 35.765625 12.613281 37.097656 13.945312 37.097656 15.582031 L 37.097656 17.066406 C 37.097656 18.703125 35.765625 20.03125 34.128906 20.03125 C 32.492188 20.03125 31.160156 18.703125 31.160156 17.066406 Z M 29.242188 26.710938 L 34.191406 21.757812 C 34.347656 21.605469 34.5625 21.515625 34.78125 21.515625 C 35.238281 21.515625 35.613281 21.890625 35.613281 22.347656 C 35.613281 22.566406 35.523438 22.78125 35.371094 22.9375 L 30.113281 28.195312 L 22.257812 28.195312 C 21.847656 28.195312 21.515625 27.859375 21.515625 27.453125 C 21.515625 27.042969 21.847656 26.710938 22.257812 26.710938 Z M 13.355469 15.582031 C 13.355469 13.945312 14.6875 12.613281 16.324219 12.613281 C 17.960938 12.613281 19.289062 13.945312 19.289062 15.582031 L 19.289062 17.066406 C 19.289062 18.703125 17.960938 20.03125 16.324219 20.03125 C 14.6875 20.03125 13.355469 18.703125 13.355469 17.066406 Z M 16.324219 21.515625 C 16.84375 21.515625 17.339844 21.421875 17.804688 21.257812 L 17.804688 22.054688 C 17.621094 22.335938 17.109375 23 16.324219 23 C 15.535156 23 15.023438 22.335938 14.839844 22.054688 L 14.839844 21.257812 C 15.304688 21.421875 15.800781 21.515625 16.324219 21.515625 Z M 9.644531 25.421875 C 9.644531 24.761719 10.089844 24.175781 10.722656 23.992188 L 13.777344 23.121094 C 14.207031 23.683594 15.046875 24.484375 16.324219 24.484375 C 17.597656 24.484375 18.4375 23.683594 18.867188 23.121094 L 21.925781 23.992188 C 22.492188 24.15625 22.890625 24.648438 22.96875 25.226562 L 22.257812 25.226562 C 21.03125 25.226562 20.03125 26.222656 20.03125 27.449219 C 20.03125 27.710938 20.085938 27.960938 20.167969 28.191406 L 9.644531 28.191406 Z M 6.675781 29.675781 L 29.675781 29.675781 L 29.675781 31.160156 L 6.675781 31.160156 Z M 8.160156 35.613281 L 10.386719 35.613281 L 10.386719 34.128906 L 8.160156 34.128906 L 8.160156 32.644531 L 27.453125 32.644531 L 27.453125 34.128906 L 11.871094 34.128906 L 11.871094 35.613281 L 27.453125 35.613281 L 27.453125 44.515625 L 25.683594 44.515625 L 24.199219 41.546875 L 11.414062 41.546875 L 9.929688 44.515625 L 8.160156 44.515625 Z M 24.023438 44.515625 L 11.585938 44.515625 L 12.328125 43.03125 L 23.285156 43.03125 Z M 24.023438 44.515625 "/>
</g>
</svg>
