<?xml version="1.0" encoding="UTF-8"?>
<svg xmlns="http://www.w3.org/2000/svg" xmlns:xlink="http://www.w3.org/1999/xlink" width="45pt" height="43pt" viewBox="0 0 45 43" version="1.1">
<g id="surface1">
<path style=" stroke:none;fill-rule:nonzero;fill:rgb(0%,0%,0%);fill-opacity:1;" d="M 14.175781 29.648438 C 14.011719 29.492188 13.785156 29.398438 13.554688 29.398438 C 13.324219 29.398438 13.097656 29.488281 12.933594 29.648438 C 12.769531 29.800781 12.675781 30.019531 12.675781 30.238281 C 12.675781 30.460938 12.769531 30.679688 12.933594 30.832031 C 13.097656 30.988281 13.324219 31.078125 13.554688 31.078125 C 13.785156 31.078125 14.011719 30.992188 14.175781 30.832031 C 14.339844 30.679688 14.433594 30.460938 14.433594 30.238281 C 14.433594 30.019531 14.339844 29.800781 14.175781 29.648438 Z M 14.175781 29.648438 "/>
<path style=" stroke:none;fill-rule:nonzero;fill:rgb(0%,0%,0%);fill-opacity:1;" d="M 43.527344 30.574219 L 37.171875 24.503906 C 36.222656 23.597656 34.960938 23.097656 33.621094 23.097656 C 32.28125 23.097656 31.019531 23.597656 30.070312 24.503906 L 27.855469 26.621094 L 26.96875 27.464844 L 16.246094 17.21875 L 19.347656 14.257812 C 21.304688 12.386719 21.304688 9.34375 19.347656 7.472656 L 13 1.40625 C 11.042969 -0.464844 7.855469 -0.464844 5.898438 1.40625 L 4.222656 3.003906 C -1.402344 8.382812 -1.402344 17.132812 4.222656 22.511719 L 10.398438 28.414062 C 10.742188 28.742188 11.296875 28.742188 11.640625 28.414062 C 11.984375 28.085938 11.984375 27.554688 11.640625 27.226562 L 5.46875 21.324219 C 0.917969 16.976562 0.554688 10.121094 4.378906 5.375 L 11.054688 11.753906 C 11.226562 11.917969 11.449219 12 11.675781 12 C 11.902344 12 12.125 11.917969 12.296875 11.753906 C 12.640625 11.425781 12.640625 10.894531 12.296875 10.566406 L 5.546875 4.117188 L 7.140625 2.59375 C 8.414062 1.378906 10.484375 1.378906 11.757812 2.59375 L 18.105469 8.660156 C 19.378906 9.875 19.378906 11.851562 18.105469 13.070312 L 14.382812 16.625 C 14.21875 16.785156 14.125 16.996094 14.125 17.21875 C 14.125 17.441406 14.21875 17.65625 14.382812 17.8125 L 26.347656 29.25 C 26.691406 29.574219 27.25 29.574219 27.589844 29.25 L 28.476562 28.402344 L 39.371094 38.8125 C 37.164062 40.4375 34.476562 41.320312 31.644531 41.320312 C 28.257812 41.320312 25.074219 40.058594 22.679688 37.773438 L 16.417969 31.789062 C 16.074219 31.460938 15.519531 31.460938 15.175781 31.789062 C 14.832031 32.117188 14.832031 32.648438 15.175781 32.976562 L 21.4375 38.960938 C 24.164062 41.566406 27.789062 43 31.644531 43 C 35.5 43 39.125 41.566406 41.851562 38.960938 L 43.527344 37.359375 C 44.472656 36.453125 44.996094 35.25 44.996094 33.96875 C 44.996094 32.6875 44.472656 31.480469 43.527344 30.574219 Z M 42.28125 36.171875 L 40.6875 37.695312 L 29.71875 27.214844 L 31.3125 25.691406 C 31.929688 25.101562 32.75 24.777344 33.621094 24.777344 C 34.492188 24.777344 35.3125 25.101562 35.929688 25.691406 L 42.28125 31.761719 C 42.898438 32.351562 43.238281 33.132812 43.238281 33.96875 C 43.238281 34.800781 42.898438 35.582031 42.28125 36.171875 Z M 42.28125 36.171875 "/>
<path style=" stroke:none;fill-rule:nonzero;fill:rgb(0%,0%,0%);fill-opacity:1;" d="M 14.433594 12.605469 C 14.269531 12.449219 14.042969 12.359375 13.808594 12.359375 C 13.578125 12.359375 13.351562 12.449219 13.1875 12.605469 C 13.027344 12.761719 12.929688 12.976562 12.929688 13.199219 C 12.929688 13.421875 13.027344 13.636719 13.1875 13.792969 C 13.351562 13.949219 13.578125 14.039062 13.808594 14.039062 C 14.042969 14.039062 14.269531 13.949219 14.433594 13.792969 C 14.59375 13.636719 14.6875 13.421875 14.6875 13.199219 C 14.6875 12.980469 14.59375 12.761719 14.433594 12.605469 Z M 14.433594 12.605469 "/>
<path style=" stroke:none;fill-rule:nonzero;fill:rgb(0%,0%,0%);fill-opacity:1;" d="M 37.050781 6.066406 C 36.945312 4.625 35.730469 3.464844 34.222656 3.367188 C 33.371094 3.3125 32.554688 3.585938 31.929688 4.140625 C 31.316406 4.691406 30.964844 5.46875 30.964844 6.269531 C 30.964844 6.734375 31.355469 7.109375 31.84375 7.109375 C 32.328125 7.109375 32.722656 6.734375 32.722656 6.269531 C 32.722656 5.925781 32.867188 5.605469 33.128906 5.371094 C 33.394531 5.132812 33.738281 5.019531 34.105469 5.042969 C 34.738281 5.085938 35.253906 5.574219 35.296875 6.183594 C 35.339844 6.796875 34.917969 7.339844 34.292969 7.472656 C 33.609375 7.621094 33.132812 8.1875 33.132812 8.855469 L 33.132812 10.371094 C 33.132812 10.832031 33.523438 11.210938 34.011719 11.210938 C 34.496094 11.210938 34.890625 10.832031 34.890625 10.371094 L 34.890625 9.058594 C 36.25 8.671875 37.148438 7.445312 37.050781 6.066406 Z M 37.050781 6.066406 "/>
<path style=" stroke:none;fill-rule:nonzero;fill:rgb(0%,0%,0%);fill-opacity:1;" d="M 34.632812 12.765625 C 34.46875 12.609375 34.242188 12.519531 34.011719 12.519531 C 33.777344 12.519531 33.550781 12.609375 33.390625 12.765625 C 33.226562 12.921875 33.132812 13.136719 33.132812 13.359375 C 33.132812 13.578125 33.226562 13.796875 33.390625 13.953125 C 33.550781 14.109375 33.777344 14.199219 34.011719 14.199219 C 34.242188 14.199219 34.46875 14.109375 34.632812 13.953125 C 34.796875 13.796875 34.890625 13.578125 34.890625 13.359375 C 34.890625 13.136719 34.796875 12.921875 34.632812 12.765625 Z M 34.632812 12.765625 "/>
<path style=" stroke:none;fill-rule:nonzero;fill:rgb(0%,0%,0%);fill-opacity:1;" d="M 40.601562 0 L 27.417969 0 C 24.996094 0 23.023438 1.882812 23.023438 4.199219 L 23.023438 13.769531 C 23.023438 16.085938 24.996094 17.96875 27.417969 17.96875 L 30.75 17.96875 L 33.324219 21.171875 C 33.492188 21.378906 33.75 21.5 34.023438 21.5 C 34.296875 21.5 34.554688 21.378906 34.71875 21.167969 L 37.273438 17.96875 L 40.601562 17.96875 C 43.023438 17.96875 44.996094 16.085938 44.996094 13.769531 L 44.996094 4.199219 C 44.996094 1.882812 43.023438 0 40.601562 0 Z M 43.238281 13.769531 C 43.238281 15.160156 42.054688 16.289062 40.601562 16.289062 L 36.835938 16.289062 C 36.5625 16.289062 36.304688 16.414062 36.136719 16.621094 L 34.019531 19.277344 L 31.882812 16.617188 C 31.714844 16.410156 31.457031 16.289062 31.183594 16.289062 L 27.417969 16.289062 C 25.964844 16.289062 24.78125 15.160156 24.78125 13.769531 L 24.78125 4.199219 C 24.78125 2.808594 25.964844 1.679688 27.417969 1.679688 L 40.601562 1.679688 C 42.054688 1.679688 43.238281 2.808594 43.238281 4.199219 Z M 43.238281 13.769531 "/>
</g>
</svg>
