<?xml version="1.0" encoding="UTF-8"?>
<svg xmlns="http://www.w3.org/2000/svg" xmlns:xlink="http://www.w3.org/1999/xlink" width="44pt" height="44pt" viewBox="0 0 44 44" version="1.1">
<g id="surface1">
<path style=" stroke:none;fill-rule:nonzero;fill:rgb(76.078431%,4.705882%,4.705882%);fill-opacity:1;" d="M 32.265625 27.132812 C 32.265625 26.730469 31.9375 26.398438 31.53125 26.398438 L 27.132812 26.398438 C 26.726562 26.398438 26.398438 26.730469 26.398438 27.132812 C 26.398438 27.539062 26.726562 27.867188 27.132812 27.867188 L 31.53125 27.867188 C 31.9375 27.867188 32.265625 27.539062 32.265625 27.132812 Z M 32.265625 27.132812 "/>
<path style=" stroke:none;fill-rule:nonzero;fill:rgb(76.078431%,4.705882%,4.705882%);fill-opacity:1;" d="M 29.332031 8.066406 L 29.332031 4.398438 C 29.332031 3.996094 29.003906 3.667969 28.597656 3.667969 C 28.195312 3.667969 27.867188 3.996094 27.867188 4.398438 L 27.867188 8.066406 C 27.867188 10.089844 29.511719 11.734375 31.53125 11.734375 L 38.132812 11.734375 L 38.132812 25.667969 C 38.132812 26.070312 38.460938 26.398438 38.867188 26.398438 C 39.269531 26.398438 39.597656 26.070312 39.597656 25.667969 L 39.597656 11 C 39.597656 10.59375 39.269531 10.265625 38.867188 10.265625 L 31.53125 10.265625 C 30.320312 10.265625 29.332031 9.28125 29.332031 8.066406 Z M 29.332031 8.066406 "/>
<path style=" stroke:none;fill-rule:nonzero;fill:rgb(76.078431%,4.705882%,4.705882%);fill-opacity:1;" d="M 31.53125 17.601562 L 25.664062 17.601562 C 25.261719 17.601562 24.933594 17.929688 24.933594 18.332031 C 24.933594 18.738281 25.261719 19.066406 25.664062 19.066406 L 31.53125 19.066406 C 31.9375 19.066406 32.265625 18.738281 32.265625 18.332031 C 32.265625 17.929688 31.9375 17.601562 31.53125 17.601562 Z M 31.53125 17.601562 "/>
<path style=" stroke:none;fill-rule:nonzero;fill:rgb(76.078431%,4.705882%,4.705882%);fill-opacity:1;" d="M 23.464844 18.332031 C 23.464844 17.929688 23.136719 17.601562 22.730469 17.601562 L 18.332031 17.601562 C 17.925781 17.601562 17.597656 17.929688 17.597656 18.332031 C 17.597656 18.738281 17.925781 19.066406 18.332031 19.066406 L 22.730469 19.066406 C 23.136719 19.066406 23.464844 18.738281 23.464844 18.332031 Z M 23.464844 18.332031 "/>
<path style=" stroke:none;fill-rule:nonzero;fill:rgb(76.078431%,4.705882%,4.705882%);fill-opacity:1;" d="M 18.332031 22 C 17.925781 22 17.597656 22.328125 17.597656 22.734375 C 17.597656 23.136719 17.925781 23.464844 18.332031 23.464844 L 19.796875 23.464844 C 20.203125 23.464844 20.53125 23.136719 20.53125 22.734375 C 20.53125 22.328125 20.203125 22 19.796875 22 Z M 18.332031 22 "/>
<path style=" stroke:none;fill-rule:nonzero;fill:rgb(76.078431%,4.705882%,4.705882%);fill-opacity:1;" d="M 18.332031 14.667969 L 25.664062 14.667969 C 26.070312 14.667969 26.398438 14.339844 26.398438 13.933594 C 26.398438 13.527344 26.070312 13.199219 25.664062 13.199219 L 18.332031 13.199219 C 17.925781 13.199219 17.597656 13.527344 17.597656 13.933594 C 17.597656 14.339844 17.925781 14.667969 18.332031 14.667969 Z M 18.332031 14.667969 "/>
<path style=" stroke:none;fill-rule:nonzero;fill:rgb(76.078431%,4.705882%,4.705882%);fill-opacity:1;" d="M 22.730469 23.464844 L 30.066406 23.464844 C 30.46875 23.464844 30.796875 23.136719 30.796875 22.734375 C 30.796875 22.328125 30.46875 22 30.066406 22 L 22.730469 22 C 22.328125 22 22 22.328125 22 22.734375 C 22 23.136719 22.328125 23.464844 22.730469 23.464844 Z M 22.730469 23.464844 "/>
<path style=" stroke:none;fill-rule:nonzero;fill:rgb(76.078431%,4.705882%,4.705882%);fill-opacity:1;" d="M 27.132812 30.800781 C 26.726562 30.800781 26.398438 31.128906 26.398438 31.535156 C 26.398438 31.9375 26.726562 32.265625 27.132812 32.265625 L 28.597656 32.265625 C 29.003906 32.265625 29.332031 31.9375 29.332031 31.535156 C 29.332031 31.128906 29.003906 30.800781 28.597656 30.800781 Z M 27.132812 30.800781 "/>
<path style=" stroke:none;fill-rule:nonzero;fill:rgb(76.078431%,4.705882%,4.705882%);fill-opacity:1;" d="M 24.199219 26.398438 L 18.332031 26.398438 C 17.925781 26.398438 17.597656 26.730469 17.597656 27.132812 C 17.597656 27.539062 17.925781 27.867188 18.332031 27.867188 L 24.199219 27.867188 C 24.601562 27.867188 24.933594 27.539062 24.933594 27.132812 C 24.933594 26.730469 24.601562 26.398438 24.199219 26.398438 Z M 24.199219 26.398438 "/>
<path style=" stroke:none;fill-rule:nonzero;fill:rgb(76.078431%,4.705882%,4.705882%);fill-opacity:1;" d="M 24.199219 30.800781 L 18.332031 30.800781 C 17.925781 30.800781 17.597656 31.128906 17.597656 31.535156 C 17.597656 31.9375 17.925781 32.265625 18.332031 32.265625 L 24.199219 32.265625 C 24.601562 32.265625 24.933594 31.9375 24.933594 31.535156 C 24.933594 31.128906 24.601562 30.800781 24.199219 30.800781 Z M 24.199219 30.800781 "/>
<path style=" stroke:none;fill-rule:nonzero;fill:rgb(76.078431%,4.705882%,4.705882%);fill-opacity:1;" d="M 41.660156 30.207031 L 40.191406 28.738281 C 39.066406 27.613281 37.347656 27.613281 36.222656 28.738281 L 26.613281 38.347656 C 26.476562 38.484375 26.398438 38.671875 26.398438 38.867188 L 26.398438 43.265625 C 26.398438 43.671875 26.726562 44 27.132812 44 L 31.53125 44 C 31.726562 44 31.914062 43.921875 32.050781 43.785156 L 41.660156 34.175781 C 42.828125 33.007812 42.828125 31.375 41.660156 30.207031 Z M 35.273438 31.761719 L 36.4375 32.925781 L 30.066406 39.296875 L 28.902344 38.132812 Z M 27.867188 42.535156 L 27.867188 39.171875 L 31.226562 42.535156 Z M 32.265625 41.496094 L 31.101562 40.332031 L 37.472656 33.960938 L 38.636719 35.125 Z M 40.621094 33.140625 L 39.671875 34.089844 L 36.308594 30.726562 L 37.257812 29.777344 C 37.835938 29.199219 38.574219 29.195312 39.15625 29.777344 L 40.621094 31.242188 C 41.214844 31.835938 41.214844 32.546875 40.621094 33.140625 Z M 40.621094 33.140625 "/>
<path style=" stroke:none;fill-rule:nonzero;fill:rgb(76.078431%,4.705882%,4.705882%);fill-opacity:1;" d="M 24.199219 42.535156 L 5.132812 42.535156 C 3.917969 42.535156 2.933594 41.546875 2.933594 40.332031 L 2.933594 3.667969 C 2.933594 2.453125 3.917969 1.464844 5.132812 1.464844 L 28.296875 1.464844 L 35.414062 8.585938 C 35.699219 8.871094 36.164062 8.871094 36.449219 8.585938 C 36.738281 8.296875 36.738281 7.835938 36.449219 7.546875 L 29.117188 0.214844 C 28.980469 0.078125 28.792969 0 28.597656 0 L 5.132812 0 C 3.109375 0 1.464844 1.644531 1.464844 3.667969 L 1.464844 40.332031 C 1.464844 42.355469 3.109375 44 5.132812 44 L 24.199219 44 C 24.601562 44 24.933594 43.671875 24.933594 43.265625 C 24.933594 42.863281 24.601562 42.535156 24.199219 42.535156 Z M 24.199219 42.535156 "/>
<path style=" stroke:none;fill-rule:nonzero;fill:rgb(76.078431%,4.705882%,4.705882%);fill-opacity:1;" d="M 24.199219 35.199219 L 18.332031 35.199219 C 17.925781 35.199219 17.597656 35.527344 17.597656 35.933594 C 17.597656 36.339844 17.925781 36.667969 18.332031 36.667969 L 24.199219 36.667969 C 24.601562 36.667969 24.933594 36.339844 24.933594 35.933594 C 24.933594 35.527344 24.601562 35.199219 24.199219 35.199219 Z M 24.199219 35.199219 "/>
<path style=" stroke:none;fill-rule:nonzero;fill:rgb(76.078431%,4.705882%,4.705882%);fill-opacity:1;" d="M 14.664062 13.933594 C 14.664062 13.527344 14.335938 13.199219 13.933594 13.199219 L 9.53125 13.199219 C 9.128906 13.199219 8.796875 13.527344 8.796875 13.933594 L 8.796875 18.332031 C 8.796875 18.738281 9.128906 19.066406 9.53125 19.066406 L 13.933594 19.066406 C 14.335938 19.066406 14.664062 18.738281 14.664062 18.332031 Z M 13.199219 17.601562 L 10.265625 17.601562 L 10.265625 14.667969 L 13.199219 14.667969 Z M 13.199219 17.601562 "/>
<path style=" stroke:none;fill-rule:nonzero;fill:rgb(76.078431%,4.705882%,4.705882%);fill-opacity:1;" d="M 9.53125 36.667969 L 13.933594 36.667969 C 14.335938 36.667969 14.664062 36.339844 14.664062 35.933594 L 14.664062 31.535156 C 14.664062 31.128906 14.335938 30.800781 13.933594 30.800781 L 9.53125 30.800781 C 9.128906 30.800781 8.796875 31.128906 8.796875 31.535156 L 8.796875 35.933594 C 8.796875 36.339844 9.128906 36.667969 9.53125 36.667969 Z M 10.265625 32.265625 L 13.199219 32.265625 L 13.199219 35.199219 L 10.265625 35.199219 Z M 10.265625 32.265625 "/>
<path style=" stroke:none;fill-rule:nonzero;fill:rgb(76.078431%,4.705882%,4.705882%);fill-opacity:1;" d="M 10.480469 27.652344 C 10.617188 27.789062 10.804688 27.867188 11 27.867188 C 11.023438 27.867188 11.046875 27.867188 11.070312 27.863281 C 11.289062 27.839844 11.488281 27.722656 11.609375 27.539062 L 14.542969 23.140625 C 14.765625 22.804688 14.675781 22.347656 14.339844 22.125 C 14 21.898438 13.546875 21.988281 13.320312 22.328125 L 10.886719 25.980469 L 10.050781 25.148438 C 9.765625 24.863281 9.300781 24.863281 9.011719 25.148438 C 8.726562 25.433594 8.726562 25.898438 9.011719 26.183594 Z M 10.480469 27.652344 "/>
</g>
</svg>
