<?xml version="1.0" encoding="UTF-8"?>
<svg xmlns="http://www.w3.org/2000/svg" xmlns:xlink="http://www.w3.org/1999/xlink" width="39pt" height="39pt" viewBox="0 0 39 39" version="1.1">
<g id="surface1">
<path style=" stroke:none;fill-rule:nonzero;fill:rgb(76.078431%,4.705882%,4.705882%);fill-opacity:1;" d="M 29.25 16.25 L 13 16.25 C 12.640625 16.25 12.351562 16.539062 12.351562 16.898438 C 12.351562 17.257812 12.640625 17.550781 13 17.550781 L 29.25 17.550781 C 29.609375 17.550781 29.898438 17.257812 29.898438 16.898438 C 29.898438 16.539062 29.609375 16.25 29.25 16.25 Z M 29.25 16.25 "/>
<path style=" stroke:none;fill-rule:nonzero;fill:rgb(76.078431%,4.705882%,4.705882%);fill-opacity:1;" d="M 13 12.351562 L 19.5 12.351562 C 19.859375 12.351562 20.148438 12.058594 20.148438 11.699219 C 20.148438 11.339844 19.859375 11.050781 19.5 11.050781 L 13 11.050781 C 12.640625 11.050781 12.351562 11.339844 12.351562 11.699219 C 12.351562 12.058594 12.640625 12.351562 13 12.351562 Z M 13 12.351562 "/>
<path style=" stroke:none;fill-rule:nonzero;fill:rgb(76.078431%,4.705882%,4.705882%);fill-opacity:1;" d="M 29.25 21.449219 L 13 21.449219 C 12.640625 21.449219 12.351562 21.742188 12.351562 22.101562 C 12.351562 22.460938 12.640625 22.75 13 22.75 L 29.25 22.75 C 29.609375 22.75 29.898438 22.460938 29.898438 22.101562 C 29.898438 21.742188 29.609375 21.449219 29.25 21.449219 Z M 29.25 21.449219 "/>
<path style=" stroke:none;fill-rule:nonzero;fill:rgb(76.078431%,4.705882%,4.705882%);fill-opacity:1;" d="M 29.25 26.648438 L 13 26.648438 C 12.640625 26.648438 12.351562 26.941406 12.351562 27.300781 C 12.351562 27.660156 12.640625 27.949219 13 27.949219 L 29.25 27.949219 C 29.609375 27.949219 29.898438 27.660156 29.898438 27.300781 C 29.898438 26.941406 29.609375 26.648438 29.25 26.648438 Z M 29.25 26.648438 "/>
<path style=" stroke:none;fill-rule:nonzero;fill:rgb(76.078431%,4.705882%,4.705882%);fill-opacity:1;" d="M 29.25 31.851562 L 13 31.851562 C 12.640625 31.851562 12.351562 32.140625 12.351562 32.5 C 12.351562 32.859375 12.640625 33.148438 13 33.148438 L 29.25 33.148438 C 29.609375 33.148438 29.898438 32.859375 29.898438 32.5 C 29.898438 32.140625 29.609375 31.851562 29.25 31.851562 Z M 29.25 31.851562 "/>
<path style=" stroke:none;fill-rule:nonzero;fill:rgb(76.078431%,4.705882%,4.705882%);fill-opacity:1;" d="M 31.851562 9.480469 L 31.851562 0 L 3.898438 0 L 3.898438 35.75 L 7.148438 35.75 L 7.148438 39 L 35.101562 39 L 35.101562 12.730469 Z M 26 5.46875 L 32.882812 12.351562 L 26 12.351562 Z M 5.199219 34.449219 L 5.199219 1.300781 L 30.550781 1.300781 L 30.550781 8.179688 L 25.617188 3.25 L 7.148438 3.25 L 7.148438 34.449219 Z M 8.449219 37.699219 L 8.449219 4.550781 L 24.699219 4.550781 L 24.699219 13.648438 L 33.800781 13.648438 L 33.800781 37.699219 Z M 8.449219 37.699219 "/>
</g>
</svg>
