<?xml version="1.0" encoding="UTF-8"?>
<svg xmlns="http://www.w3.org/2000/svg" xmlns:xlink="http://www.w3.org/1999/xlink" width="44pt" height="47pt" viewBox="0 0 44 47" version="1.1">
<g id="surface1">
<path style=" stroke:none;fill-rule:nonzero;fill:rgb(76.078431%,4.705882%,4.705882%);fill-opacity:1;" d="M 37.746094 33.722656 L 34.980469 32.984375 C 34.960938 32.683594 34.777344 32.417969 34.496094 32.320312 L 30.160156 30.773438 C 29.996094 30.5 29.78125 30.253906 29.515625 30.0625 L 28.441406 29.296875 C 30.886719 26.789062 32.460938 22.902344 32.460938 18.550781 C 32.460938 17.914062 32.390625 17.246094 32.277344 16.574219 C 32.292969 16.527344 32.304688 16.476562 32.308594 16.421875 C 32.3125 16.386719 32.78125 12.585938 33.039062 8.023438 C 33.144531 6.199219 32.609375 4.410156 31.53125 2.996094 C 30.449219 1.574219 28.921875 0.652344 27.226562 0.40625 C 25.425781 0.136719 23.632812 0 21.90625 0 C 20.535156 0 17.15625 0.242188 14.816406 2.425781 L 14.554688 2.425781 C 13.308594 2.425781 12.109375 2.984375 11.257812 3.957031 C 10.414062 4.929688 9.980469 6.238281 10.070312 7.5625 C 10.269531 10.511719 10.636719 14.699219 11.277344 17.898438 C 11.292969 17.980469 11.324219 18.058594 11.359375 18.128906 C 11.359375 18.269531 11.355469 18.40625 11.355469 18.550781 C 11.355469 22.902344 12.925781 26.789062 15.375 29.296875 L 14.296875 30.0625 C 14.03125 30.253906 13.816406 30.5 13.652344 30.773438 L 9.320312 32.320312 C 9.039062 32.417969 8.851562 32.683594 8.835938 32.984375 L 6.066406 33.722656 C 3.386719 34.4375 1.515625 37 1.515625 39.949219 L 1.515625 44.425781 C 1.515625 45.734375 2.511719 46.800781 3.734375 46.800781 L 40.078125 46.800781 C 41.300781 46.800781 42.296875 45.734375 42.296875 44.425781 L 42.296875 39.949219 C 42.296875 37 40.425781 34.4375 37.746094 33.722656 Z M 29.644531 37.566406 L 30.925781 39.625 L 28.234375 45.285156 L 26.402344 45.285156 C 26.390625 44.183594 26.453125 41.789062 27.136719 39.839844 C 27.148438 39.8125 27.152344 39.78125 27.160156 39.753906 C 27.164062 39.738281 27.171875 39.726562 27.175781 39.714844 L 28.277344 37.359375 C 28.941406 35.945312 29.738281 34.242188 30.269531 33.101562 C 30.367188 32.902344 30.429688 32.691406 30.46875 32.484375 L 33.378906 33.515625 L 32.710938 35.703125 L 30.0625 36.410156 C 29.835938 36.46875 29.65625 36.644531 29.570312 36.875 C 29.488281 37.105469 29.515625 37.363281 29.644531 37.566406 Z M 24.058594 45.285156 L 23.441406 40.089844 C 23.855469 39.816406 24.132812 39.324219 24.132812 38.765625 L 24.132812 38.476562 C 24.601562 38.835938 25.113281 39.273438 25.648438 39.804688 C 25.03125 41.863281 24.96875 44.15625 24.984375 45.285156 Z M 18.851562 45.285156 C 18.867188 44.152344 18.800781 41.851562 18.179688 39.789062 C 18.710938 39.261719 19.214844 38.832031 19.683594 38.476562 L 19.683594 38.765625 C 19.683594 39.324219 19.957031 39.816406 20.375 40.089844 L 19.753906 45.285156 Z M 21.90625 37.148438 C 22.082031 37.21875 22.359375 37.347656 22.710938 37.546875 L 22.710938 38.765625 C 22.710938 38.792969 22.691406 38.816406 22.664062 38.816406 L 21.148438 38.816406 C 21.125 38.816406 21.101562 38.792969 21.101562 38.765625 L 21.101562 37.546875 C 21.457031 37.347656 21.730469 37.21875 21.90625 37.148438 Z M 21.777344 40.332031 L 22.039062 40.332031 L 22.628906 45.285156 L 21.1875 45.285156 Z M 29.003906 32.425781 C 27.683594 35.246094 26.742188 37.253906 26.238281 38.328125 C 25.019531 37.183594 23.914062 36.484375 23.152344 36.082031 L 28.054688 30.84375 L 28.726562 31.328125 C 29.066406 31.566406 29.183594 32.039062 29.003906 32.425781 Z M 30.992188 18.601562 L 28.671875 18.601562 L 28.671875 17.742188 C 28.671875 17.320312 28.355469 16.984375 27.960938 16.984375 L 23.421875 16.984375 C 23.027344 16.984375 22.710938 17.320312 22.710938 17.742188 L 22.710938 17.949219 C 22.460938 17.851562 22.191406 17.792969 21.90625 17.792969 C 21.621094 17.792969 21.351562 17.851562 21.101562 17.949219 L 21.101562 17.742188 C 21.101562 17.320312 20.785156 16.984375 20.390625 16.984375 L 15.851562 16.984375 C 15.457031 16.984375 15.140625 17.320312 15.140625 17.742188 L 15.140625 18.601562 L 12.820312 18.601562 C 12.808594 18.601562 12.792969 18.601562 12.773438 18.601562 C 12.773438 18.585938 12.773438 18.566406 12.773438 18.550781 C 12.773438 15.933594 13.386719 13.460938 14.542969 11.363281 C 19.011719 12.847656 24.023438 12.84375 29.316406 12.835938 L 29.757812 12.835938 C 30.300781 14.308594 31.039062 16.652344 31.039062 18.550781 C 31.039062 18.566406 31.039062 18.585938 31.039062 18.601562 C 31.019531 18.601562 31.007812 18.601562 30.992188 18.601562 Z M 11.484375 7.453125 C 11.421875 6.539062 11.714844 5.664062 12.300781 4.992188 C 12.886719 4.3125 13.6875 3.941406 14.554688 3.941406 L 15.09375 3.941406 C 15.277344 3.941406 15.449219 3.867188 15.582031 3.734375 C 17.546875 1.730469 20.660156 1.515625 21.90625 1.515625 C 23.566406 1.515625 25.292969 1.644531 27.035156 1.90625 C 28.371094 2.105469 29.574219 2.832031 30.429688 3.953125 C 31.285156 5.070312 31.707031 6.488281 31.621094 7.933594 C 31.519531 9.734375 31.386719 11.417969 31.261719 12.789062 C 31.132812 12.433594 31.011719 12.101562 30.890625 11.789062 C 30.78125 11.503906 30.523438 11.324219 30.234375 11.324219 L 29.316406 11.324219 C 23.929688 11.328125 18.839844 11.332031 14.464844 9.738281 C 14.152344 9.628906 13.816406 9.75 13.640625 10.042969 C 12.964844 11.152344 12.433594 12.359375 12.054688 13.636719 C 11.789062 11.460938 11.605469 9.230469 11.484375 7.453125 Z M 12.851562 20.113281 L 15.140625 20.113281 L 15.140625 20.164062 C 15.140625 20.585938 15.457031 20.921875 15.851562 20.921875 C 16.242188 20.921875 16.5625 20.585938 16.5625 20.164062 L 16.5625 18.5 L 17.414062 18.5 L 17.414062 19.359375 C 17.414062 19.773438 17.730469 20.113281 18.125 20.113281 C 18.511719 20.113281 18.828125 19.773438 18.828125 19.359375 L 18.828125 18.5 L 19.683594 18.5 L 19.683594 20.164062 C 19.683594 20.585938 20.003906 20.921875 20.390625 20.921875 C 20.785156 20.921875 21.101562 20.585938 21.101562 20.164062 C 21.101562 19.695312 21.460938 19.308594 21.90625 19.308594 C 22.351562 19.308594 22.710938 19.695312 22.710938 20.164062 C 22.710938 20.585938 23.027344 20.921875 23.421875 20.921875 C 23.8125 20.921875 24.132812 20.585938 24.132812 20.164062 L 24.132812 18.5 L 24.984375 18.5 L 24.984375 19.359375 C 24.984375 19.773438 25.300781 20.113281 25.691406 20.113281 C 26.082031 20.113281 26.398438 19.773438 26.398438 19.359375 L 26.398438 18.5 L 27.253906 18.5 L 27.253906 20.164062 C 27.253906 20.585938 27.574219 20.921875 27.960938 20.921875 C 28.355469 20.921875 28.671875 20.585938 28.671875 20.164062 L 28.671875 20.113281 L 30.964844 20.113281 C 30.382812 26.097656 26.542969 30.730469 21.90625 30.730469 C 17.269531 30.730469 13.429688 26.097656 12.851562 20.113281 Z M 21.90625 32.246094 C 23.171875 32.246094 24.378906 31.953125 25.503906 31.425781 L 21.90625 35.269531 L 18.308594 31.425781 C 19.433594 31.953125 20.644531 32.246094 21.90625 32.246094 Z M 15.085938 31.328125 L 15.761719 30.84375 L 20.660156 36.082031 C 19.898438 36.484375 18.789062 37.183594 17.574219 38.328125 C 17.0625 37.234375 16.101562 35.1875 14.808594 32.425781 C 14.632812 32.039062 14.746094 31.566406 15.085938 31.328125 Z M 13.347656 32.484375 C 13.382812 32.691406 13.449219 32.902344 13.542969 33.101562 C 14.074219 34.242188 14.871094 35.945312 15.535156 37.359375 L 16.636719 39.714844 C 16.660156 39.765625 16.683594 39.816406 16.707031 39.863281 C 17.378906 41.800781 17.441406 44.1875 17.429688 45.285156 L 15.578125 45.285156 L 12.886719 39.625 L 14.167969 37.566406 C 14.300781 37.363281 14.324219 37.105469 14.242188 36.875 C 14.15625 36.644531 13.976562 36.472656 13.75 36.410156 L 11.101562 35.703125 L 10.4375 33.515625 Z M 2.933594 44.425781 L 2.933594 39.949219 C 2.933594 37.695312 4.363281 35.738281 6.410156 35.195312 L 9.222656 34.441406 L 9.875 36.574219 C 9.953125 36.824219 10.140625 37.011719 10.378906 37.074219 L 12.433594 37.621094 L 11.472656 39.152344 C 11.332031 39.378906 11.316406 39.671875 11.433594 39.917969 L 13.988281 45.285156 L 9.75 45.285156 L 9.75 42.808594 C 9.75 42.390625 9.425781 42.050781 9.039062 42.050781 C 8.644531 42.050781 8.328125 42.390625 8.328125 42.808594 L 8.328125 45.285156 L 3.734375 45.285156 C 3.296875 45.285156 2.933594 44.898438 2.933594 44.425781 Z M 40.878906 44.425781 C 40.878906 44.898438 40.519531 45.285156 40.078125 45.285156 L 35.484375 45.285156 L 35.484375 42.808594 C 35.484375 42.390625 35.167969 42.050781 34.777344 42.050781 C 34.386719 42.050781 34.066406 42.390625 34.066406 42.808594 L 34.066406 45.285156 L 29.832031 45.285156 L 32.378906 39.917969 C 32.496094 39.671875 32.480469 39.378906 32.339844 39.152344 L 31.382812 37.621094 L 33.433594 37.074219 C 33.671875 37.011719 33.863281 36.824219 33.9375 36.574219 L 34.589844 34.441406 L 37.40625 35.195312 C 39.449219 35.738281 40.878906 37.695312 40.878906 39.949219 Z M 40.878906 44.425781 "/>
<path style=" stroke:none;fill-rule:nonzero;fill:rgb(76.078431%,4.705882%,4.705882%);fill-opacity:1;" d="M 18.480469 26.429688 C 19.320312 27.042969 20.570312 27.390625 21.90625 27.390625 C 23.242188 27.390625 24.492188 27.042969 25.332031 26.429688 C 25.65625 26.195312 25.742188 25.722656 25.523438 25.375 C 25.300781 25.03125 24.859375 24.941406 24.535156 25.179688 C 23.929688 25.613281 22.953125 25.878906 21.90625 25.878906 C 20.863281 25.878906 19.882812 25.613281 19.277344 25.179688 C 18.953125 24.941406 18.511719 25.03125 18.289062 25.375 C 18.074219 25.722656 18.15625 26.195312 18.480469 26.429688 Z M 18.480469 26.429688 "/>
</g>
</svg>
