<?xml version="1.0" encoding="UTF-8"?>
<svg xmlns="http://www.w3.org/2000/svg" xmlns:xlink="http://www.w3.org/1999/xlink" width="45pt" height="45pt" viewBox="0 0 45 45" version="1.1">
<g id="surface1">
<path style=" stroke:none;fill-rule:nonzero;fill:rgb(76.078431%,4.705882%,4.705882%);fill-opacity:1;" d="M 40.78125 6.328125 L 38.542969 6.328125 C 38.25 5.511719 37.476562 4.921875 36.5625 4.921875 L 35.726562 4.921875 C 35.070312 2.449219 32.839844 0.703125 30.234375 0.703125 C 27.644531 0.703125 25.425781 2.425781 24.746094 4.921875 L 23.90625 4.921875 C 22.992188 4.921875 22.21875 5.511719 21.925781 6.328125 L 19.6875 6.328125 C 17.75 6.328125 16.171875 7.90625 16.171875 9.84375 L 16.171875 14.277344 C 15.050781 13.734375 13.824219 13.425781 12.558594 13.375 C 13.484375 12.480469 14.0625 11.230469 14.0625 9.84375 C 14.0625 7.128906 11.855469 4.921875 9.140625 4.921875 C 6.425781 4.921875 4.21875 7.128906 4.21875 9.84375 C 4.21875 11.28125 4.84375 12.574219 5.832031 13.476562 C 2.914062 14.039062 0.703125 16.609375 0.703125 19.6875 L 0.703125 25.3125 C 0.703125 27.25 2.28125 28.828125 4.21875 28.828125 L 4.21875 41.484375 C 4.21875 43.035156 5.480469 44.296875 7.03125 44.296875 C 7.875 44.296875 8.625 43.914062 9.140625 43.324219 C 9.65625 43.914062 10.40625 44.296875 11.25 44.296875 C 12.800781 44.296875 14.0625 43.035156 14.0625 41.484375 L 14.0625 19.226562 L 16.171875 21.125 L 16.171875 40.78125 C 16.171875 42.71875 17.75 44.296875 19.6875 44.296875 L 40.78125 44.296875 C 42.71875 44.296875 44.296875 42.71875 44.296875 40.78125 L 44.296875 9.84375 C 44.296875 7.90625 42.71875 6.328125 40.78125 6.328125 Z M 40.078125 34.453125 L 34.453125 34.453125 L 34.453125 40.078125 L 20.390625 40.078125 L 20.390625 24.871094 C 20.820312 25.15625 21.320312 25.3125 21.84375 25.3125 L 21.953125 25.3125 C 23.417969 25.3125 24.609375 24.121094 24.609375 22.65625 C 24.609375 21.914062 24.296875 21.199219 23.75 20.699219 L 20.390625 17.621094 L 20.390625 10.546875 L 21.925781 10.546875 C 22.21875 11.363281 22.992188 11.953125 23.90625 11.953125 L 36.5625 11.953125 C 37.476562 11.953125 38.25 11.363281 38.542969 10.546875 L 40.078125 10.546875 Z M 39.082031 35.859375 L 35.859375 39.082031 L 35.859375 35.859375 Z M 23.203125 7.03125 C 23.203125 6.644531 23.519531 6.328125 23.90625 6.328125 L 25.3125 6.328125 L 25.917969 6.269531 L 26.015625 5.683594 C 26.359375 3.613281 28.136719 2.109375 30.234375 2.109375 C 32.332031 2.109375 34.109375 3.613281 34.453125 5.683594 L 34.5625 6.328125 L 36.5625 6.328125 C 36.949219 6.328125 37.265625 6.644531 37.265625 7.03125 L 37.265625 9.84375 C 37.265625 10.230469 36.949219 10.546875 36.5625 10.546875 L 23.90625 10.546875 C 23.519531 10.546875 23.203125 10.230469 23.203125 9.84375 Z M 17.578125 9.84375 C 17.578125 8.679688 18.523438 7.734375 19.6875 7.734375 L 21.796875 7.734375 L 21.796875 9.140625 L 20.390625 9.140625 C 19.613281 9.140625 18.984375 9.769531 18.984375 10.546875 L 18.984375 16.332031 L 18.363281 15.761719 C 18.113281 15.53125 17.847656 15.324219 17.578125 15.125 Z M 6.105469 14.855469 C 6.40625 14.796875 6.714844 14.765625 7.03125 14.765625 L 7.324219 14.765625 L 7.042969 16.734375 Z M 8.746094 14.765625 L 9.535156 14.765625 L 10.132812 18.945312 L 9.140625 20.929688 L 8.148438 18.945312 Z M 11.238281 16.734375 L 10.957031 14.765625 L 12.1875 14.765625 C 12.199219 14.765625 12.210938 14.765625 12.222656 14.765625 Z M 5.625 9.84375 C 5.625 7.90625 7.203125 6.328125 9.140625 6.328125 C 11.078125 6.328125 12.65625 7.90625 12.65625 9.84375 C 12.65625 11.78125 11.078125 13.359375 9.140625 13.359375 C 7.203125 13.359375 5.625 11.78125 5.625 9.84375 Z M 12.65625 17.578125 L 12.65625 41.484375 C 12.65625 42.261719 12.027344 42.890625 11.25 42.890625 C 10.472656 42.890625 9.84375 42.261719 9.84375 41.484375 L 9.84375 26.015625 L 8.4375 26.015625 L 8.4375 41.484375 C 8.4375 42.261719 7.808594 42.890625 7.03125 42.890625 C 6.253906 42.890625 5.625 42.261719 5.625 41.484375 L 5.625 17.578125 L 4.21875 17.578125 L 4.21875 27.421875 C 3.054688 27.421875 2.109375 26.476562 2.109375 25.3125 L 2.109375 19.6875 C 2.109375 17.792969 3.191406 16.144531 4.765625 15.324219 L 9.140625 24.070312 L 13.714844 14.921875 C 15.085938 15.195312 16.363281 15.835938 17.414062 16.796875 L 22.796875 21.734375 C 23.054688 21.96875 23.203125 22.308594 23.203125 22.65625 C 23.203125 23.34375 22.640625 23.90625 21.953125 23.90625 L 21.84375 23.90625 C 21.535156 23.90625 21.238281 23.792969 21.007812 23.585938 L 14.332031 17.578125 Z M 42.890625 40.78125 C 42.890625 41.945312 41.945312 42.890625 40.78125 42.890625 L 19.6875 42.890625 C 18.523438 42.890625 17.578125 41.945312 17.578125 40.78125 L 17.578125 22.390625 L 18.984375 23.65625 L 18.984375 40.078125 C 18.984375 40.855469 19.613281 41.484375 20.390625 41.484375 L 35.449219 41.484375 L 41.484375 35.449219 L 41.484375 10.546875 C 41.484375 9.769531 40.855469 9.140625 40.078125 9.140625 L 38.671875 9.140625 L 38.671875 7.734375 L 40.78125 7.734375 C 41.945312 7.734375 42.890625 8.679688 42.890625 9.84375 Z M 42.890625 40.78125 "/>
<path style=" stroke:none;fill-rule:nonzero;fill:rgb(76.078431%,4.705882%,4.705882%);fill-opacity:1;" d="M 24.609375 7.734375 L 26.015625 7.734375 L 26.015625 9.140625 L 24.609375 9.140625 Z M 24.609375 7.734375 "/>
<path style=" stroke:none;fill-rule:nonzero;fill:rgb(76.078431%,4.705882%,4.705882%);fill-opacity:1;" d="M 34.453125 7.734375 L 35.859375 7.734375 L 35.859375 9.140625 L 34.453125 9.140625 Z M 34.453125 7.734375 "/>
<path style=" stroke:none;fill-rule:nonzero;fill:rgb(76.078431%,4.705882%,4.705882%);fill-opacity:1;" d="M 30.234375 7.734375 C 31.398438 7.734375 32.34375 6.789062 32.34375 5.625 C 32.34375 4.460938 31.398438 3.515625 30.234375 3.515625 C 29.070312 3.515625 28.125 4.460938 28.125 5.625 C 28.125 6.789062 29.070312 7.734375 30.234375 7.734375 Z M 30.234375 4.921875 C 30.621094 4.921875 30.9375 5.238281 30.9375 5.625 C 30.9375 6.011719 30.621094 6.328125 30.234375 6.328125 C 29.847656 6.328125 29.53125 6.011719 29.53125 5.625 C 29.53125 5.238281 29.847656 4.921875 30.234375 4.921875 Z M 30.234375 4.921875 "/>
<path style=" stroke:none;fill-rule:nonzero;fill:rgb(76.078431%,4.705882%,4.705882%);fill-opacity:1;" d="M 36.5625 28.828125 C 35.398438 28.828125 34.453125 29.773438 34.453125 30.9375 C 34.453125 32.101562 35.398438 33.046875 36.5625 33.046875 C 37.726562 33.046875 38.671875 32.101562 38.671875 30.9375 C 38.671875 29.773438 37.726562 28.828125 36.5625 28.828125 Z M 36.5625 31.640625 C 36.175781 31.640625 35.859375 31.324219 35.859375 30.9375 C 35.859375 30.550781 36.175781 30.234375 36.5625 30.234375 C 36.949219 30.234375 37.265625 30.550781 37.265625 30.9375 C 37.265625 31.324219 36.949219 31.640625 36.5625 31.640625 Z M 36.5625 31.640625 "/>
<path style=" stroke:none;fill-rule:nonzero;fill:rgb(76.078431%,4.705882%,4.705882%);fill-opacity:1;" d="M 23.699219 31.433594 L 25.3125 29.824219 L 26.925781 31.433594 L 27.917969 30.441406 L 26.308594 28.828125 L 27.917969 27.214844 L 26.925781 26.222656 L 25.3125 27.832031 L 23.699219 26.222656 L 22.707031 27.214844 L 24.316406 28.828125 L 22.707031 30.441406 Z M 23.699219 31.433594 "/>
<path style=" stroke:none;fill-rule:nonzero;fill:rgb(76.078431%,4.705882%,4.705882%);fill-opacity:1;" d="M 38.175781 21.300781 L 36.5625 22.910156 L 34.949219 21.300781 L 33.957031 22.292969 L 35.566406 23.90625 L 33.957031 25.519531 L 34.949219 26.511719 L 36.5625 24.902344 L 38.175781 26.511719 L 39.167969 25.519531 L 37.558594 23.90625 L 39.167969 22.292969 Z M 38.175781 21.300781 "/>
<path style=" stroke:none;fill-rule:nonzero;fill:rgb(76.078431%,4.705882%,4.705882%);fill-opacity:1;" d="M 26.925781 18.074219 L 27.917969 17.082031 L 26.308594 15.46875 L 27.917969 13.855469 L 26.925781 12.863281 L 25.3125 14.472656 L 23.699219 12.863281 L 22.707031 13.855469 L 24.316406 15.46875 L 22.707031 17.082031 L 23.699219 18.074219 L 25.3125 16.464844 Z M 26.925781 18.074219 "/>
<path style=" stroke:none;fill-rule:nonzero;fill:rgb(76.078431%,4.705882%,4.705882%);fill-opacity:1;" d="M 34.453125 19.6875 L 34.453125 14.765625 L 29.53125 14.765625 L 29.53125 16.171875 L 32.050781 16.171875 L 28.375 19.851562 C 27.769531 20.457031 27.421875 21.292969 27.421875 22.148438 C 27.421875 23.003906 27.769531 23.839844 28.375 24.445312 L 30.398438 26.46875 C 30.742188 26.8125 30.9375 27.289062 30.9375 27.773438 C 30.9375 28.257812 30.742188 28.734375 30.398438 29.078125 L 24.808594 34.664062 C 24.535156 34.53125 24.230469 34.453125 23.90625 34.453125 C 22.742188 34.453125 21.796875 35.398438 21.796875 36.5625 C 21.796875 37.726562 22.742188 38.671875 23.90625 38.671875 C 25.070312 38.671875 26.015625 37.726562 26.015625 36.5625 C 26.015625 36.238281 25.9375 35.933594 25.804688 35.660156 L 31.390625 30.070312 C 31.996094 29.464844 32.34375 28.628906 32.34375 27.773438 C 32.34375 26.917969 31.996094 26.082031 31.390625 25.476562 L 29.367188 23.453125 C 29.023438 23.109375 28.828125 22.632812 28.828125 22.148438 C 28.828125 21.664062 29.023438 21.1875 29.367188 20.84375 L 33.046875 17.167969 L 33.046875 19.6875 Z M 23.90625 37.265625 C 23.519531 37.265625 23.203125 36.949219 23.203125 36.5625 C 23.203125 36.175781 23.519531 35.859375 23.90625 35.859375 C 24.292969 35.859375 24.609375 36.175781 24.609375 36.5625 C 24.609375 36.949219 24.292969 37.265625 23.90625 37.265625 Z M 23.90625 37.265625 "/>
<path style=" stroke:none;fill-rule:nonzero;fill:rgb(76.078431%,4.705882%,4.705882%);fill-opacity:1;" d="M 40.078125 37.265625 L 41.484375 37.265625 L 41.484375 38.671875 L 40.078125 38.671875 Z M 40.078125 37.265625 "/>
<path style=" stroke:none;fill-rule:nonzero;fill:rgb(76.078431%,4.705882%,4.705882%);fill-opacity:1;" d="M 40.078125 40.078125 L 41.484375 40.078125 L 41.484375 41.484375 L 40.078125 41.484375 Z M 40.078125 40.078125 "/>
</g>
</svg>
