<?xml version="1.0" encoding="UTF-8"?>
<svg xmlns="http://www.w3.org/2000/svg" xmlns:xlink="http://www.w3.org/1999/xlink" width="46pt" height="46pt" viewBox="0 0 46 46" version="1.1">
<g id="surface1">
<path style=" stroke:none;fill-rule:nonzero;fill:rgb(76.078431%,4.705882%,4.705882%);fill-opacity:1;" d="M 44.75 46 C 44.328125 46 43.929688 45.746094 43.765625 45.332031 L 41.121094 38.714844 C 39.765625 35.371094 38.203125 33.679688 36.027344 33.285156 L 35.476562 35.921875 L 36.242188 42.796875 C 36.28125 43.15625 36.132812 43.511719 35.851562 43.738281 L 34.144531 45.109375 C 33.957031 45.257812 33.722656 45.34375 33.484375 45.34375 L 32.878906 45.34375 C 32.636719 45.34375 32.402344 45.257812 32.214844 45.109375 L 30.507812 43.738281 C 30.226562 43.511719 30.078125 43.15625 30.121094 42.796875 L 30.882812 35.921875 L 30.332031 33.285156 C 28.15625 33.679688 26.597656 35.371094 25.234375 38.722656 L 22.550781 45.339844 C 22.332031 45.878906 21.714844 46.140625 21.171875 45.921875 C 20.628906 45.703125 20.367188 45.085938 20.585938 44.542969 L 23.273438 37.925781 C 24.4375 35.054688 26.503906 31.265625 31.050781 31.082031 C 31.089844 31.074219 31.132812 31.074219 31.171875 31.074219 L 35.1875 31.074219 C 35.230469 31.074219 35.269531 31.074219 35.308594 31.082031 C 39.859375 31.265625 41.921875 35.054688 43.085938 37.925781 L 45.734375 44.546875 C 45.949219 45.089844 45.6875 45.707031 45.140625 45.925781 C 45.011719 45.976562 44.878906 46 44.75 46 Z M 32.289062 42.453125 L 33.179688 43.167969 L 34.070312 42.453125 L 33.457031 36.929688 L 32.902344 36.929688 Z M 32.816406 34.8125 L 33.542969 34.8125 L 33.882812 33.191406 L 32.476562 33.191406 Z M 1.25 46 C 1.117188 46 0.984375 45.976562 0.851562 45.921875 C 0.308594 45.703125 0.0507812 45.085938 0.269531 44.542969 L 2.914062 38.023438 C 4.089844 35.121094 6.203125 31.265625 10.933594 31.265625 L 14.441406 31.265625 C 16.992188 31.265625 19.09375 32.398438 20.679688 34.632812 C 20.707031 34.671875 20.828125 34.835938 20.972656 35.035156 C 21.480469 35.722656 21.613281 35.910156 21.660156 35.976562 C 21.980469 36.464844 21.847656 37.121094 21.359375 37.445312 C 20.875 37.765625 20.21875 37.632812 19.894531 37.152344 C 19.839844 37.070312 19.464844 36.5625 19.265625 36.289062 C 19.109375 36.074219 18.980469 35.894531 18.953125 35.859375 C 18.21875 34.828125 17.402344 34.132812 16.449219 33.75 L 13.542969 37.726562 C 13.34375 38 13.027344 38.160156 12.6875 38.160156 C 12.351562 38.160156 12.03125 38 11.832031 37.726562 L 8.929688 33.75 C 7.277344 34.417969 6.007812 36.039062 4.878906 38.820312 L 2.234375 45.339844 C 2.066406 45.75 1.667969 46 1.25 46 Z M 11.285156 33.382812 L 12.6875 35.304688 L 14.089844 33.382812 Z M 16.960938 46 L 5.695312 46 C 5.109375 46 4.636719 45.523438 4.636719 44.941406 C 4.636719 44.355469 5.109375 43.878906 5.695312 43.878906 L 16.960938 43.878906 C 17.546875 43.878906 18.023438 44.355469 18.023438 44.941406 C 18.023438 45.523438 17.546875 46 16.960938 46 Z M 38 38.289062 C 37.414062 38.289062 36.9375 37.8125 36.9375 37.226562 L 36.9375 37.097656 C 36.9375 36.511719 37.414062 36.035156 38 36.035156 C 38.582031 36.035156 39.058594 36.511719 39.058594 37.097656 L 39.058594 37.226562 C 39.058594 37.8125 38.582031 38.289062 38 38.289062 Z M 12.6875 29.707031 C 9.726562 29.707031 7.3125 27.296875 7.3125 24.332031 C 7.3125 21.890625 8.949219 19.824219 11.183594 19.171875 C 11.195312 19.167969 11.203125 19.164062 11.214844 19.160156 C 11.570312 19.0625 11.933594 18.996094 12.300781 18.96875 C 12.304688 18.96875 12.304688 18.96875 12.308594 18.96875 C 12.308594 18.96875 12.3125 18.96875 12.3125 18.96875 C 12.316406 18.96875 12.316406 18.96875 12.320312 18.96875 C 12.320312 18.96875 12.324219 18.96875 12.324219 18.96875 C 12.328125 18.96875 12.328125 18.96875 12.332031 18.96875 C 12.335938 18.96875 12.335938 18.96875 12.335938 18.96875 C 12.34375 18.96875 12.34375 18.96875 12.351562 18.96875 C 12.367188 18.964844 12.382812 18.964844 12.402344 18.964844 C 12.40625 18.964844 12.414062 18.964844 12.417969 18.964844 C 12.421875 18.964844 12.425781 18.960938 12.429688 18.960938 C 12.433594 18.960938 12.433594 18.960938 12.4375 18.960938 C 12.4375 18.960938 12.441406 18.960938 12.441406 18.960938 C 12.445312 18.960938 12.445312 18.960938 12.449219 18.960938 C 12.449219 18.960938 12.453125 18.960938 12.453125 18.960938 C 12.457031 18.960938 12.457031 18.960938 12.460938 18.960938 C 12.460938 18.960938 12.460938 18.960938 12.464844 18.960938 C 12.464844 18.960938 12.46875 18.960938 12.46875 18.960938 C 12.472656 18.960938 12.476562 18.960938 12.480469 18.960938 C 12.546875 18.957031 12.613281 18.957031 12.679688 18.957031 C 12.679688 18.957031 12.683594 18.957031 12.683594 18.957031 C 12.6875 18.957031 12.6875 18.957031 12.6875 18.957031 C 12.695312 18.957031 12.699219 18.957031 12.707031 18.957031 C 12.707031 18.957031 12.710938 18.957031 12.714844 18.957031 C 12.714844 18.957031 12.71875 18.957031 12.722656 18.957031 C 12.726562 18.957031 12.726562 18.957031 12.730469 18.957031 C 12.730469 18.957031 12.734375 18.957031 12.734375 18.957031 C 15.371094 18.976562 17.566406 20.875 17.992188 23.441406 C 18.039062 23.730469 18.066406 24.027344 18.066406 24.332031 C 18.066406 27.296875 15.652344 29.707031 12.6875 29.707031 Z M 10.785156 21.691406 C 9.964844 22.285156 9.433594 23.246094 9.433594 24.332031 C 9.433594 26.128906 10.894531 27.589844 12.6875 27.589844 C 14.210938 27.589844 15.492188 26.539062 15.847656 25.125 C 13.546875 25.140625 11.566406 23.738281 10.785156 21.691406 Z M 12.824219 21.078125 C 13.3125 22.1875 14.398438 22.953125 15.664062 23.003906 C 15.171875 21.90625 14.089844 21.128906 12.824219 21.078125 Z M 33.179688 29.464844 C 30.179688 29.464844 27.738281 27.023438 27.738281 24.023438 C 27.738281 21.023438 30.179688 18.582031 33.179688 18.582031 C 33.539062 18.582031 33.890625 18.617188 34.230469 18.683594 C 34.25 18.6875 34.273438 18.691406 34.296875 18.695312 C 36.761719 19.214844 38.621094 21.40625 38.621094 24.023438 C 38.621094 27.023438 36.179688 29.464844 33.179688 29.464844 Z M 31.296875 21.285156 C 30.429688 21.886719 29.859375 22.890625 29.859375 24.023438 C 29.859375 25.855469 31.347656 27.34375 33.179688 27.34375 C 35.011719 27.34375 36.503906 25.855469 36.503906 24.023438 C 36.503906 22.660156 35.675781 21.484375 34.5 20.972656 C 34.054688 21.546875 33.5 22.027344 32.863281 22.382812 C 32.351562 22.671875 31.707031 22.488281 31.417969 21.980469 C 31.296875 21.761719 31.257812 21.515625 31.296875 21.285156 Z M 8.082031 18.386719 C 7.898438 18.386719 7.710938 18.335938 7.546875 18.242188 C 7.222656 18.050781 7.023438 17.703125 7.023438 17.328125 L 7.023438 7.78125 C 7.023438 5.925781 8.535156 4.414062 10.390625 4.414062 L 14.148438 4.414062 C 14.734375 4.414062 15.207031 4.890625 15.207031 5.472656 C 15.207031 6.058594 14.734375 6.535156 14.148438 6.535156 L 10.390625 6.535156 C 9.703125 6.535156 9.144531 7.09375 9.144531 7.78125 L 9.144531 15.519531 L 10.601562 14.699219 C 10.757812 14.613281 10.9375 14.566406 11.121094 14.566406 L 20.3125 14.566406 C 20.898438 14.566406 21.371094 15.039062 21.371094 15.625 C 21.371094 16.210938 20.898438 16.683594 20.3125 16.683594 L 11.394531 16.683594 L 8.601562 18.25 C 8.441406 18.339844 8.261719 18.386719 8.082031 18.386719 Z M 33.1875 16.191406 C 32.894531 16.191406 32.605469 16.070312 32.402344 15.847656 L 29.140625 12.269531 L 20.574219 12.269531 C 18.71875 12.269531 17.210938 10.761719 17.210938 8.90625 L 17.210938 3.363281 C 17.210938 1.507812 18.71875 0 20.574219 0 L 30.878906 0 C 32.734375 0 34.246094 1.507812 34.246094 3.363281 L 34.246094 15.132812 C 34.246094 15.570312 33.976562 15.960938 33.566406 16.121094 C 33.445312 16.167969 33.3125 16.191406 33.1875 16.191406 Z M 20.574219 2.117188 C 19.886719 2.117188 19.328125 2.679688 19.328125 3.363281 L 19.328125 8.90625 C 19.328125 9.589844 19.886719 10.152344 20.574219 10.152344 L 29.609375 10.152344 C 29.90625 10.152344 30.191406 10.277344 30.390625 10.496094 L 32.125 12.398438 L 32.125 3.363281 C 32.125 2.679688 31.566406 2.117188 30.878906 2.117188 Z M 13.9375 10.539062 L 12.011719 10.539062 C 11.429688 10.539062 10.953125 10.066406 10.953125 9.480469 C 10.953125 8.894531 11.429688 8.421875 12.011719 8.421875 L 13.9375 8.421875 C 14.519531 8.421875 14.996094 8.894531 14.996094 9.480469 C 14.996094 10.066406 14.519531 10.539062 13.9375 10.539062 Z M 29.03125 6.1875 L 24.65625 6.1875 C 24.070312 6.1875 23.597656 5.710938 23.597656 5.125 C 23.597656 4.542969 24.070312 4.066406 24.65625 4.066406 L 29.03125 4.066406 C 29.613281 4.066406 30.089844 4.542969 30.089844 5.125 C 30.089844 5.710938 29.613281 6.1875 29.03125 6.1875 Z M 29.03125 6.1875 "/>
</g>
</svg>
